<svg width="160" height="88" viewBox="0 0 160 88" fill="none" xmlns="http://www.w3.org/2000/svg">
<g clip-path="url(#clip0_174_53)">
<path d="M8.66165 50.8433C15.8701 49.2084 15.2894 39.3861 7.32391 39.3861H0V80.3005H7.32391C13.2523 80.3005 16.1588 73.3441 16.1588 65.1632C16.1588 57.5638 13.6597 51.7189 8.66165 50.8433ZM6.04391 39.7383C11.3917 39.7383 11.3917 50.727 6.04391 50.727H3.66035V44.9984C3.66035 42.6591 2.55679 41.1406 1.1613 39.7383H6.04391ZM6.04391 79.9515H3.66035V51.0759H6.04391C9.99619 51.0759 11.9146 56.979 11.9146 64.9887C11.9146 72.9984 9.99619 79.9515 6.04391 79.9515Z" fill="white"/>
<path d="M29.3341 80.7141C25.6738 80.7141 24.567 76.7981 24.567 65.5767V64.5816H36.0742C36.0742 56.9241 34.0981 50.1454 29.2732 50.1454C23.9254 50.1454 20.9612 55.874 20.9612 65.5767C20.9612 75.2795 23.9254 81.0662 29.3309 81.0662C33.5751 81.0662 35.9587 76.7981 36.5971 69.3764H36.1897C35.4935 77.2666 32.7603 80.7173 29.3309 80.7173L29.3341 80.7141ZM29.2764 50.4944C33.1132 50.4944 34.3322 56.1648 34.4509 64.2294H24.5702C24.6857 54.0582 25.8502 50.4944 29.2764 50.4944Z" fill="white"/>
<path d="M44.9829 57.9741L43.5874 51.0759H41.7267V80.3005H45.0983V60.9531C45.0983 54.6397 48.178 53.9386 53.5258 53.9386V51.0759H52.48C48.7619 51.0759 45.7945 52.9467 44.9829 57.9741Z" fill="white"/>
<path d="M58.973 67.7932C60.3108 69.9548 62.4601 71.1244 65.1934 71.1244C70.1915 71.1244 73.1557 67.2084 73.1557 60.6042V45.1147H69.3189C72.1099 48.9726 72.6328 52.2456 72.7483 56.6301C71.7602 52.4814 69.0847 50.1422 65.1902 50.1422C60.1921 50.1422 57.2279 54 57.2279 60.6042C57.2279 63.3506 57.7508 65.6317 58.6811 67.3861C56.3553 74.8078 58.8543 77.0307 61.1224 77.6737C57.6353 78.0259 56.6472 79.2504 56.6472 80.7722C56.6472 90.769 73.7363 90.0646 73.7363 80.7141C73.7363 68.8498 54.8443 80.9467 58.973 67.7965V67.7932ZM65.1902 50.4944C68.5041 50.4944 69.7231 53.1244 69.7231 60.6074C69.7231 68.0905 68.5041 70.7205 65.1902 70.7205C61.8763 70.7205 60.715 68.0905 60.715 60.6074C60.715 53.1244 61.934 50.4944 65.1902 50.4944ZM73.4444 80.7141C73.4444 85.4475 56.9937 86.2068 56.9937 80.7722C56.9937 79.3118 57.8085 77.9677 63.214 77.9677C70.015 78.0259 73.4444 77.9677 73.4444 80.7141Z" fill="white"/>
<path d="M82.0419 50.2585V50.5493C86.809 50.5493 90.1807 51.2504 90.5271 58.2649C81.4581 63.8191 77.5667 68.9628 77.6245 74.1066C77.6822 78.6656 80.2968 81.0049 83.4374 81.0049C86.5781 81.0049 89.9465 78.433 90.6458 72.588L91.9836 80.2456H93.902V59.4378C93.902 51.4313 88.4387 50.2617 82.0451 50.2617L82.0419 50.2585ZM90.5271 59.4378V70.0743C90.5271 76.1519 87.5052 79.6026 84.9484 79.6026C83.0877 79.6026 81.519 77.7318 81.4613 73.525C81.3458 67.5057 83.7293 62.8885 90.5303 58.6785V59.4378H90.5271Z" fill="white"/>
<path d="M110.061 50.1422C107.27 50.1422 104.424 52.3651 103.494 57.2149L102.156 51.0759H100.122V80.3005H103.494V59.609C103.728 54.5234 106.227 51.483 108.668 51.483C110.702 51.483 112.563 53.3538 112.563 58.1454V80.2973H115.992V57.7932C115.992 52.5331 113.028 50.1357 110.064 50.1357L110.061 50.1422Z" fill="white"/>
<path d="M125.475 70.601V51.4281H129.02V51.0759H125.475V39.3861H125.126L122.104 51.0759H120.07V51.4281H122.104V70.601C122.104 78.0258 125.183 81.063 129.485 81.063V80.7108C126.694 80.7108 125.475 79.483 125.475 70.5977V70.601Z" fill="white"/>
<path d="M137.813 51.0792H134.442V80.3037H137.813V51.0792Z" fill="white"/>
<path d="M154.072 50.1422C151.281 50.1422 148.435 52.3651 147.505 57.2149L146.167 51.0759H144.133V80.3005H147.505V59.609C147.736 54.5234 150.238 51.483 152.676 51.483C154.71 51.483 156.571 53.3538 156.571 58.1454V80.2973H160V57.7932C160 52.5331 157.036 50.1357 154.072 50.1357V50.1422Z" fill="white"/>
<path d="M158.852 33.958L158.964 33.6026L131.535 12.7561L133.405 33.958H158.852Z" fill="#0096A0"/>
<path d="M134.438 45.7803H134.788L141.05 41.4863L133.396 33.958L134.438 45.7803Z" fill="#0096A0"/>
<path d="M127.413 21.1826L127.525 20.8304L100.122 0L105.598 21.1826H127.413Z" fill="#0096A0"/>
<path d="M27.0436 18.2197C27.7686 18.2197 28.4198 18.2779 29.0005 18.4103C29.5811 18.5428 30.072 18.7302 30.4954 18.9952C30.9157 19.2569 31.2365 19.5929 31.4514 20C31.6696 20.4071 31.7851 20.9047 31.7851 21.4733V21.5315C31.7851 22.1163 31.6696 22.6268 31.4354 23.063C31.2012 23.4992 30.8836 23.8643 30.4794 24.1551C30.072 24.4459 29.5811 24.6656 29.0133 24.811C28.4487 24.9564 27.8103 25.0307 27.1142 25.0307H24.3874V28.6624H22.2572V18.2359L27.0436 18.2197ZM27.0885 23.5444C27.9162 23.5444 28.5546 23.3829 29.0037 23.063C29.4528 22.7431 29.6838 22.2617 29.6838 21.6187V21.5606C29.6838 21.2246 29.6261 20.9338 29.4945 20.7011C29.363 20.4685 29.1898 20.2779 28.9588 20.1325C28.7278 19.9871 28.4519 19.8837 28.1311 19.8126C27.8135 19.7415 27.4639 19.7092 27.0725 19.7092H24.3906V23.5606H27.0725L27.0853 23.5444H27.0885Z" fill="white"/>
<path d="M38.5026 28.853C37.9797 28.853 37.5017 28.7948 37.0687 28.6624C36.6324 28.5299 36.2699 28.3425 35.9651 28.0808C35.6603 27.8191 35.4294 27.483 35.2561 27.0727C35.0829 26.6656 34.9963 26.1842 34.9963 25.6155V21.0662H36.982V25.4572C36.982 26.1292 37.1713 26.6107 37.5338 26.9144C37.8963 27.2213 38.4609 27.3667 39.2148 27.3667C39.5773 27.3667 39.9238 27.3215 40.2574 27.2342C40.5911 27.147 40.8798 27.0145 41.1268 26.8401C41.3738 26.6656 41.5759 26.4459 41.7203 26.1842C41.8646 25.9225 41.9384 25.6155 41.9384 25.2504V21.0501H43.9402V28.6785H41.9384V27.2504C41.7075 27.7027 41.3 28.0808 40.7194 28.3748C40.1387 28.6656 39.4137 28.811 38.5283 28.811L38.4994 28.8562L38.5026 28.853Z" fill="white"/>
<path d="M50.013 21.0501V22.4943C50.26 22.042 50.6803 21.664 51.2738 21.357C51.8672 21.0501 52.6083 20.8918 53.4937 20.8918C54.0166 20.8918 54.4946 20.9499 54.9309 21.0662C55.3672 21.1826 55.7425 21.3732 56.0473 21.6349C56.3521 21.8966 56.5991 22.2326 56.7723 22.643C56.9455 23.0501 57.0322 23.5477 57.0322 24.1292V28.6656H55.0464V24.3037C55.0464 23.6187 54.8571 23.1212 54.4818 22.8174C54.1032 22.5105 53.5386 22.3522 52.7687 22.3522C52.4062 22.3522 52.0597 22.3974 51.7261 22.4847C51.3925 22.5719 51.1037 22.7044 50.8567 22.8788C50.6097 23.0533 50.4076 23.273 50.2632 23.5347C50.1189 23.7964 50.0451 24.1034 50.0451 24.4685V28.6688H48.0593V21.0404L50.0162 21.0533L50.013 21.0501Z" fill="white"/>
<path d="M64.3112 28.7948C63.3391 28.7948 62.6141 28.5751 62.1201 28.1519C61.626 27.7286 61.379 27.0856 61.379 26.2262V22.42H59.9707V21.0501H61.379V19.2569H63.3808V21.0501H65.774V22.42H63.3808V26.0969C63.3808 26.5784 63.4963 26.8982 63.7273 27.0727C63.9583 27.2472 64.2919 27.3344 64.7122 27.3344C64.9303 27.3344 65.1324 27.3183 65.3056 27.2892C65.4789 27.2601 65.6553 27.2149 65.8125 27.1729V28.601C65.6232 28.6462 65.4211 28.6882 65.1902 28.7334C64.9592 28.7754 64.6672 28.7916 64.3208 28.7916H64.3079L64.3112 28.7948Z" fill="white"/>
<path d="M72.3152 28.853C71.8212 28.853 71.3592 28.8078 70.9229 28.7205C70.4866 28.6333 70.1113 28.4879 69.7905 28.2973C69.4729 28.1066 69.2098 27.8611 69.0205 27.567C68.8313 27.2763 68.7447 26.9241 68.7447 26.517C68.7447 26.1099 68.8473 25.7286 69.0494 25.4249C69.2515 25.1179 69.5435 24.8691 69.9188 24.6817C70.2941 24.4911 70.7465 24.3457 71.2822 24.2585C71.8179 24.1712 72.4275 24.126 73.0947 24.126H75.6483V23.8481C75.6483 23.2795 75.4751 22.8724 75.1126 22.6236C74.7501 22.3748 74.1855 22.2585 73.4155 22.2585C72.7483 22.2585 72.2125 22.3457 71.8212 22.5364C71.4298 22.727 71.1828 23.0178 71.0961 23.412H69.181C69.2387 22.9596 69.3991 22.5816 69.6461 22.2585C69.8931 21.9354 70.2107 21.6737 70.6021 21.4701C70.9935 21.2666 71.4426 21.1212 71.9495 21.0339C72.4563 20.9467 72.9793 20.9015 73.531 20.9015C74.1117 20.9015 74.6474 20.9467 75.1543 21.0469C75.6612 21.1502 76.0974 21.3086 76.4599 21.5283C76.8225 21.748 77.1112 22.0388 77.3165 22.4039C77.5218 22.769 77.6213 23.2343 77.6213 23.79V28.6753H75.6644V27.6414C75.3596 28.0355 74.9393 28.3263 74.4036 28.517C73.8679 28.7076 73.1846 28.8078 72.3441 28.8078L72.3152 28.853ZM72.7354 27.5832C73.1268 27.5832 73.4893 27.5541 73.839 27.4798C74.1855 27.4055 74.4902 27.3053 74.7533 27.1729C75.0131 27.0404 75.2184 26.8659 75.3628 26.6624C75.5072 26.4588 75.581 26.2262 75.581 25.9483V25.3635H73.0723C72.2446 25.3635 71.6511 25.4378 71.2726 25.5961C70.8972 25.7577 70.708 26.0485 70.708 26.4717C70.708 26.8207 70.8812 27.0856 71.2309 27.273C71.5805 27.4637 72.1003 27.5509 72.7836 27.5509L72.7386 27.58L72.7354 27.5832Z" fill="white"/>
</g>
<defs>
<clipPath id="clip0_174_53">
<rect width="160" height="88" fill="white"/>
</clipPath>
</defs>
</svg>
