<svg width="147" height="81" viewBox="0 0 147 81" fill="none" xmlns="http://www.w3.org/2000/svg">
<g clip-path="url(#clip0_194_1018)">
<path d="M7.95789 46.7988C14.5806 45.2939 14.0472 36.2529 6.72884 36.2529H0V73.9128H6.72884C12.1756 73.9128 14.8459 67.5097 14.8459 59.9795C14.8459 52.9847 12.5499 47.6047 7.95789 46.7988ZM5.55284 36.5771C10.4661 36.5771 10.4661 46.6917 5.55284 46.6917H3.36295V41.4188C3.36295 39.2656 2.34905 37.8678 1.06695 36.5771H5.55284ZM5.55284 73.5916H3.36295V47.0129H5.55284C9.184 47.0129 10.9465 52.4464 10.9465 59.8189C10.9465 67.1915 9.184 73.5916 5.55284 73.5916Z" fill="white"/>
<path d="M26.9507 74.2938C23.5878 74.2938 22.5709 70.6893 22.5709 60.3606V59.4446H33.1432C33.1432 52.3962 31.3276 46.1567 26.8947 46.1567C21.9815 46.1567 19.2581 51.4297 19.2581 60.3606C19.2581 69.2915 21.9815 74.618 26.9478 74.618C30.8472 74.618 33.0371 70.6893 33.6236 63.858H33.2493C32.6097 71.1205 30.0985 74.2968 26.9478 74.2968L26.9507 74.2938ZM26.8977 46.4779C30.4227 46.4779 31.5427 51.6973 31.6518 59.1204H22.5739C22.68 49.7583 23.7499 46.4779 26.8977 46.4779Z" fill="white"/>
<path d="M41.328 53.3627L40.0459 47.0132H38.3364V73.9131H41.4341V56.1047C41.4341 50.2935 44.2636 49.6482 49.1768 49.6482V47.0132H48.216C44.8 47.0132 42.0737 48.7351 41.328 53.3627Z" fill="white"/>
<path d="M54.1815 62.4004C55.4105 64.39 57.3853 65.4666 59.8964 65.4666C64.4884 65.4666 67.2118 61.8621 67.2118 55.7833V41.5259H63.6867C66.251 45.0768 66.7314 48.0895 66.8375 52.1252C65.9297 48.3066 63.4716 46.1534 59.8935 46.1534C55.3015 46.1534 52.5781 49.7044 52.5781 55.7833C52.5781 58.3112 53.0585 60.4108 53.9133 62.0257C51.7764 68.857 54.0724 70.9031 56.1562 71.4949C52.9524 71.8191 52.0446 72.9462 52.0446 74.347C52.0446 83.5486 67.7453 82.9002 67.7453 74.2935C67.7453 63.3729 50.3882 74.5076 54.1815 62.4034V62.4004ZM59.8935 46.4776C62.9381 46.4776 64.0581 48.8984 64.0581 55.7862C64.0581 62.674 62.9381 65.0949 59.8935 65.0949C56.8488 65.0949 55.7819 62.674 55.7819 55.7862C55.7819 48.8984 56.9019 46.4776 59.8935 46.4776ZM67.4771 74.2935C67.4771 78.6504 52.363 79.3493 52.363 74.347C52.363 73.0027 53.1116 71.7656 58.0779 71.7656C64.3263 71.8191 67.4771 71.7656 67.4771 74.2935Z" fill="white"/>
<path d="M75.376 46.2607V46.5284C79.7558 46.5284 82.8535 47.1738 83.1718 53.6303C74.8396 58.7426 71.2644 63.4773 71.3175 68.2119C71.3705 72.4082 73.7726 74.5614 76.6581 74.5614C79.5436 74.5614 82.6383 72.1941 83.2808 66.8141L84.5099 73.8625H86.2724V54.7099C86.2724 47.3403 81.2531 46.2637 75.3789 46.2637L75.376 46.2607ZM83.1718 54.7099V64.5003C83.1718 70.0944 80.3954 73.2707 78.0463 73.2707C76.3368 73.2707 74.8956 71.5487 74.8425 67.6766C74.7364 62.136 76.9263 57.8861 83.1747 54.011V54.7099H83.1718Z" fill="white"/>
<path d="M101.118 46.1534C98.5541 46.1534 95.9398 48.1995 95.085 52.6635L93.856 47.0129H91.9874V73.9128H95.085V54.8672C95.3002 50.1862 97.5962 47.3876 99.8392 47.3876C101.708 47.3876 103.417 49.1096 103.417 53.52V73.9098H106.568V53.1959C106.568 48.3542 103.845 46.1475 101.121 46.1475L101.118 46.1534Z" fill="white"/>
<path d="M115.28 64.9848V47.337H118.537V47.0129H115.28V36.2529H114.959L112.183 47.0129H110.314V47.337H112.183V64.9848C112.183 71.8191 115.012 74.6146 118.965 74.6146V74.2905C116.4 74.2905 115.28 73.1603 115.28 64.9818V64.9848Z" fill="white"/>
<path d="M126.616 47.0161H123.518V73.916H126.616V47.0161Z" fill="white"/>
<path d="M141.553 46.1534C138.989 46.1534 136.375 48.1995 135.52 52.6635L134.291 47.0129H132.422V73.9128H135.52V54.8672C135.732 50.1862 138.031 47.3876 140.271 47.3876C142.14 47.3876 143.849 49.1096 143.849 53.52V73.9098H147V53.1959C147 48.3542 144.277 46.1475 141.553 46.1475V46.1534Z" fill="white"/>
<path d="M145.945 31.2566L146.048 30.9295L120.848 11.7412L122.566 31.2566H145.945Z" fill="white"/>
<path d="M123.515 42.1387H123.837L129.59 38.1863L122.557 31.2568L123.515 42.1387Z" fill="white"/>
<path d="M117.061 19.4976L117.164 19.1734L91.9874 0L97.0185 19.4976H117.061Z" fill="white"/>
<path d="M24.8463 16.7705C25.5124 16.7705 26.1107 16.824 26.6442 16.946C27.1777 17.0679 27.6286 17.2404 28.0177 17.4843C28.4038 17.7252 28.6985 18.0345 28.896 18.4092C29.0964 18.7839 29.2025 19.2419 29.2025 19.7653V19.8189C29.2025 20.3572 29.0964 20.8271 28.8813 21.2285C28.6661 21.63 28.3743 21.9661 28.0029 22.2338C27.6286 22.5014 27.1777 22.7036 26.656 22.8375C26.1373 22.9713 25.5507 23.0397 24.9112 23.0397H22.4059V26.3825H20.4488V16.7854L24.8463 16.7705ZM24.8876 21.6717C25.648 21.6717 26.2345 21.523 26.6472 21.2285C27.0598 20.9341 27.272 20.491 27.272 19.8992V19.8456C27.272 19.5363 27.2189 19.2687 27.0981 19.0545C26.9773 18.8404 26.8181 18.6649 26.6059 18.5311C26.3937 18.3973 26.1402 18.3021 25.8455 18.2367C25.5537 18.1713 25.2324 18.1415 24.8728 18.1415H22.4088V21.6865H24.8728L24.8846 21.6717H24.8876Z" fill="white"/>
<path d="M35.3743 26.5582C34.8939 26.5582 34.4547 26.5047 34.0568 26.3827C33.656 26.2608 33.3229 26.0883 33.0429 25.8474C32.7629 25.6065 32.5507 25.2972 32.3916 24.9195C32.2324 24.5448 32.1528 24.1017 32.1528 23.5782V19.3908H33.9773V23.4325C33.9773 24.0511 34.1512 24.4942 34.4842 24.7738C34.8173 25.0563 35.336 25.1902 36.0286 25.1902C36.3617 25.1902 36.68 25.1485 36.9865 25.0682C37.2931 24.9879 37.5583 24.866 37.7853 24.7054C38.0122 24.5448 38.1979 24.3426 38.3305 24.1017C38.4632 23.8608 38.5309 23.5782 38.5309 23.2422V19.376H40.3701V26.3976H38.5309V25.0831C38.3187 25.4995 37.9444 25.8474 37.4109 26.118C36.8775 26.3857 36.2114 26.5195 35.3979 26.5195L35.3714 26.5612L35.3743 26.5582Z" fill="white"/>
<path d="M45.9495 19.3757V20.7051C46.1764 20.2887 46.5625 19.9408 47.1078 19.6582C47.6531 19.3757 48.3339 19.23 49.1474 19.23C49.6278 19.23 50.0669 19.2835 50.4678 19.3906C50.8686 19.4976 51.2135 19.6731 51.4935 19.914C51.7735 20.1549 52.0004 20.4642 52.1596 20.8419C52.3187 21.2166 52.3983 21.6746 52.3983 22.2099V26.3854H50.5739V22.3705C50.5739 21.74 50.4 21.282 50.0552 21.0025C49.7074 20.72 49.1886 20.5742 48.4813 20.5742C48.1482 20.5742 47.8299 20.6159 47.5234 20.6962C47.2168 20.7765 46.9516 20.8984 46.7246 21.059C46.4977 21.2196 46.312 21.4218 46.1794 21.6627C46.0467 21.9036 45.9789 22.1861 45.9789 22.5222V26.3884H44.1545V19.3668L45.9524 19.3787L45.9495 19.3757Z" fill="white"/>
<path d="M59.0859 26.5044C58.1928 26.5044 57.5267 26.3021 57.0728 25.9125C56.6189 25.5229 56.392 24.9311 56.392 24.14V20.6366H55.0981V19.3757H56.392V17.7251H58.2312V19.3757H60.4299V20.6366H58.2312V24.0211C58.2312 24.4642 58.3373 24.7586 58.5495 24.9192C58.7617 25.0798 59.0682 25.1601 59.4543 25.1601C59.6547 25.1601 59.8404 25.1452 59.9996 25.1185C60.1587 25.0917 60.3208 25.0501 60.4653 25.0114V26.3259C60.2914 26.3676 60.1057 26.4062 59.8935 26.4479C59.6813 26.4865 59.4131 26.5014 59.0947 26.5014H59.083L59.0859 26.5044Z" fill="white"/>
<path d="M66.4396 26.5578C65.9857 26.5578 65.5613 26.5162 65.1604 26.4359C64.7596 26.3556 64.4147 26.2217 64.12 26.0463C63.8282 25.8708 63.5865 25.6448 63.4126 25.3741C63.2387 25.1065 63.1592 24.7823 63.1592 24.4076C63.1592 24.0329 63.2535 23.6819 63.4392 23.4024C63.6248 23.1198 63.8931 22.8908 64.2379 22.7184C64.5827 22.5429 64.9983 22.4091 65.4905 22.3288C65.9827 22.2485 66.5427 22.2068 67.1558 22.2068H69.5019V21.9511C69.5019 21.4276 69.3427 21.0529 69.0097 20.8239C68.6766 20.5949 68.1579 20.4879 67.4505 20.4879C66.8375 20.4879 66.3453 20.5681 65.9857 20.7436C65.6261 20.9191 65.3992 21.1867 65.3196 21.5496H63.56C63.6131 21.1332 63.7604 20.7853 63.9874 20.4879C64.2143 20.1905 64.5061 19.9496 64.8657 19.7622C65.2253 19.5748 65.6379 19.441 66.1036 19.3607C66.5693 19.2804 67.0497 19.2388 67.5566 19.2388C68.0901 19.2388 68.5823 19.2804 69.048 19.3726C69.5137 19.4678 69.9145 19.6135 70.2476 19.8157C70.5806 20.018 70.8459 20.2856 71.0345 20.6217C71.2232 20.9577 71.3145 21.386 71.3145 21.8975V26.3942H69.5166V25.4425C69.2366 25.8054 68.8505 26.073 68.3583 26.2485C67.8661 26.424 67.2383 26.5162 66.4661 26.5162L66.4396 26.5578ZM66.8257 25.389C67.1853 25.389 67.5183 25.3622 67.8396 25.2938C68.1579 25.2254 68.4379 25.1332 68.6796 25.0113C68.9183 24.8894 69.1069 24.7288 69.2396 24.5414C69.3722 24.3541 69.44 24.1399 69.44 23.8842V23.3459H67.1352C66.3747 23.3459 65.8295 23.4143 65.4817 23.56C65.1368 23.7087 64.9629 23.9764 64.9629 24.366C64.9629 24.6871 65.1221 24.931 65.4434 25.1035C65.7646 25.279 66.2421 25.3593 66.8699 25.3593L66.8286 25.386L66.8257 25.389Z" fill="white"/>
</g>
<defs>
<clipPath id="clip0_194_1018">
<rect width="147" height="81" fill="white"/>
</clipPath>
</defs>
</svg>
